<mxfile host="app.diagrams.net" modified="2024-03-30T05:38:22.396Z" agent="Mozilla/5.0 (Windows NT 10.0; Win64; x64; rv:124.0) Gecko/20100101 Firefox/124.0" etag="lARgtKEsqcUO7KGjihK-" version="24.2.0" type="device">
  <diagram name="Страница — 1" id="7Uw-dCmtmqph_xWcafJa">
    <mxGraphModel dx="1194" dy="752" grid="1" gridSize="10" guides="1" tooltips="1" connect="1" arrows="1" fold="1" page="1" pageScale="1" pageWidth="827" pageHeight="1169" math="0" shadow="0">
      <root>
        <mxCell id="0" />
        <mxCell id="1" parent="0" />
        <mxCell id="WEGuKnOYoMUn4FzqH5F0-82" style="edgeStyle=orthogonalEdgeStyle;rounded=0;orthogonalLoop=1;jettySize=auto;html=1;exitX=1;exitY=0.25;exitDx=0;exitDy=0;entryX=1;entryY=0.25;entryDx=0;entryDy=0;" parent="1" edge="1">
          <mxGeometry relative="1" as="geometry">
            <mxPoint x="730" y="225" as="sourcePoint" />
          </mxGeometry>
        </mxCell>
        <mxCell id="7X9gLZdVr9jNActSOQL8-1" value="StatsComponent" style="swimlane;fontStyle=0;childLayout=stackLayout;horizontal=1;startSize=26;horizontalStack=0;resizeParent=1;resizeParentMax=0;resizeLast=0;collapsible=1;marginBottom=0;align=center;fontSize=14;" vertex="1" parent="1">
          <mxGeometry width="230" height="266" as="geometry" />
        </mxCell>
        <mxCell id="7X9gLZdVr9jNActSOQL8-2" value="Float HP&lt;span style=&quot;white-space: pre;&quot;&gt;&#x9;&lt;/span&gt;" style="text;strokeColor=none;fillColor=none;spacingLeft=4;spacingRight=4;overflow=hidden;rotatable=0;points=[[0,0.5],[1,0.5]];portConstraint=eastwest;fontSize=12;whiteSpace=wrap;html=1;" vertex="1" parent="7X9gLZdVr9jNActSOQL8-1">
          <mxGeometry y="26" width="230" height="30" as="geometry" />
        </mxCell>
        <mxCell id="7X9gLZdVr9jNActSOQL8-3" value="Float Energy" style="text;strokeColor=none;fillColor=none;spacingLeft=4;spacingRight=4;overflow=hidden;rotatable=0;points=[[0,0.5],[1,0.5]];portConstraint=eastwest;fontSize=12;whiteSpace=wrap;html=1;" vertex="1" parent="7X9gLZdVr9jNActSOQL8-1">
          <mxGeometry y="56" width="230" height="30" as="geometry" />
        </mxCell>
        <mxCell id="7X9gLZdVr9jNActSOQL8-4" value="Float Shield" style="text;strokeColor=none;fillColor=none;spacingLeft=4;spacingRight=4;overflow=hidden;rotatable=0;points=[[0,0.5],[1,0.5]];portConstraint=eastwest;fontSize=12;whiteSpace=wrap;html=1;" vertex="1" parent="7X9gLZdVr9jNActSOQL8-1">
          <mxGeometry y="86" width="230" height="30" as="geometry" />
        </mxCell>
        <mxCell id="7X9gLZdVr9jNActSOQL8-5" value="Float Resistence" style="text;strokeColor=none;fillColor=none;spacingLeft=4;spacingRight=4;overflow=hidden;rotatable=0;points=[[0,0.5],[1,0.5]];portConstraint=eastwest;fontSize=12;whiteSpace=wrap;html=1;" vertex="1" parent="7X9gLZdVr9jNActSOQL8-1">
          <mxGeometry y="116" width="230" height="30" as="geometry" />
        </mxCell>
        <mxCell id="7X9gLZdVr9jNActSOQL8-6" value="void addHP(float deltaHP)" style="text;strokeColor=none;fillColor=none;spacingLeft=4;spacingRight=4;overflow=hidden;rotatable=0;points=[[0,0.5],[1,0.5]];portConstraint=eastwest;fontSize=12;whiteSpace=wrap;html=1;" vertex="1" parent="7X9gLZdVr9jNActSOQL8-1">
          <mxGeometry y="146" width="230" height="30" as="geometry" />
        </mxCell>
        <mxCell id="7X9gLZdVr9jNActSOQL8-7" value="void addEnergy(float deltaEnergy)" style="text;strokeColor=none;fillColor=none;spacingLeft=4;spacingRight=4;overflow=hidden;rotatable=0;points=[[0,0.5],[1,0.5]];portConstraint=eastwest;fontSize=12;whiteSpace=wrap;html=1;" vertex="1" parent="7X9gLZdVr9jNActSOQL8-1">
          <mxGeometry y="176" width="230" height="30" as="geometry" />
        </mxCell>
        <mxCell id="7X9gLZdVr9jNActSOQL8-8" value="void addShield(float deltaEnergy)" style="text;strokeColor=none;fillColor=none;spacingLeft=4;spacingRight=4;overflow=hidden;rotatable=0;points=[[0,0.5],[1,0.5]];portConstraint=eastwest;fontSize=12;whiteSpace=wrap;html=1;" vertex="1" parent="7X9gLZdVr9jNActSOQL8-1">
          <mxGeometry y="206" width="230" height="30" as="geometry" />
        </mxCell>
        <mxCell id="7X9gLZdVr9jNActSOQL8-9" value="void setResistance(flat newResistance)" style="text;strokeColor=none;fillColor=none;spacingLeft=4;spacingRight=4;overflow=hidden;rotatable=0;points=[[0,0.5],[1,0.5]];portConstraint=eastwest;fontSize=12;whiteSpace=wrap;html=1;" vertex="1" parent="7X9gLZdVr9jNActSOQL8-1">
          <mxGeometry y="236" width="230" height="30" as="geometry" />
        </mxCell>
        <mxCell id="7X9gLZdVr9jNActSOQL8-10" value="WeaponComponent" style="swimlane;fontStyle=0;childLayout=stackLayout;horizontal=1;startSize=26;horizontalStack=0;resizeParent=1;resizeParentMax=0;resizeLast=0;collapsible=1;marginBottom=0;align=center;fontSize=14;" vertex="1" parent="1">
          <mxGeometry x="480" width="160" height="146" as="geometry" />
        </mxCell>
        <mxCell id="7X9gLZdVr9jNActSOQL8-11" value="Skeleton Mesh" style="text;strokeColor=none;fillColor=none;spacingLeft=4;spacingRight=4;overflow=hidden;rotatable=0;points=[[0,0.5],[1,0.5]];portConstraint=eastwest;fontSize=12;whiteSpace=wrap;html=1;" vertex="1" parent="7X9gLZdVr9jNActSOQL8-10">
          <mxGeometry y="26" width="160" height="30" as="geometry" />
        </mxCell>
        <mxCell id="7X9gLZdVr9jNActSOQL8-12" value="Float AmounOfEnergy " style="text;strokeColor=none;fillColor=none;spacingLeft=4;spacingRight=4;overflow=hidden;rotatable=0;points=[[0,0.5],[1,0.5]];portConstraint=eastwest;fontSize=12;whiteSpace=wrap;html=1;" vertex="1" parent="7X9gLZdVr9jNActSOQL8-10">
          <mxGeometry y="56" width="160" height="30" as="geometry" />
        </mxCell>
        <mxCell id="7X9gLZdVr9jNActSOQL8-13" value="virtual void toHit()" style="text;strokeColor=none;fillColor=none;spacingLeft=4;spacingRight=4;overflow=hidden;rotatable=0;points=[[0,0.5],[1,0.5]];portConstraint=eastwest;fontSize=12;whiteSpace=wrap;html=1;" vertex="1" parent="7X9gLZdVr9jNActSOQL8-10">
          <mxGeometry y="86" width="160" height="30" as="geometry" />
        </mxCell>
        <mxCell id="7X9gLZdVr9jNActSOQL8-25" value="Float HitPerTick" style="text;strokeColor=none;fillColor=none;spacingLeft=4;spacingRight=4;overflow=hidden;rotatable=0;points=[[0,0.5],[1,0.5]];portConstraint=eastwest;fontSize=12;whiteSpace=wrap;html=1;" vertex="1" parent="7X9gLZdVr9jNActSOQL8-10">
          <mxGeometry y="116" width="160" height="30" as="geometry" />
        </mxCell>
        <mxCell id="7X9gLZdVr9jNActSOQL8-14" value="GunWeaponComponent&lt;TBullet&gt;" style="swimlane;fontStyle=0;childLayout=stackLayout;horizontal=1;startSize=26;horizontalStack=0;resizeParent=1;resizeParentMax=0;resizeLast=0;collapsible=1;marginBottom=0;align=center;fontSize=14;" vertex="1" parent="1">
          <mxGeometry x="580" y="176" width="240" height="56" as="geometry" />
        </mxCell>
        <mxCell id="7X9gLZdVr9jNActSOQL8-19" value="Float SpeedOfBullet" style="text;strokeColor=none;fillColor=none;spacingLeft=4;spacingRight=4;overflow=hidden;rotatable=0;points=[[0,0.5],[1,0.5]];portConstraint=eastwest;fontSize=12;whiteSpace=wrap;html=1;" vertex="1" parent="7X9gLZdVr9jNActSOQL8-14">
          <mxGeometry y="26" width="240" height="30" as="geometry" />
        </mxCell>
        <mxCell id="7X9gLZdVr9jNActSOQL8-18" value="" style="edgeStyle=orthogonalEdgeStyle;elbow=horizontal;endArrow=classic;html=1;rounded=0;endSize=8;startSize=8;exitX=1.006;exitY=0.129;exitDx=0;exitDy=0;exitPerimeter=0;entryX=0.5;entryY=0;entryDx=0;entryDy=0;" edge="1" parent="1" source="7X9gLZdVr9jNActSOQL8-10" target="7X9gLZdVr9jNActSOQL8-14">
          <mxGeometry width="50" height="50" relative="1" as="geometry">
            <mxPoint x="710" y="70" as="sourcePoint" />
            <mxPoint x="760" y="20" as="targetPoint" />
          </mxGeometry>
        </mxCell>
        <mxCell id="7X9gLZdVr9jNActSOQL8-21" value="MeleeWeaponComponent" style="swimlane;fontStyle=0;childLayout=stackLayout;horizontal=1;startSize=26;horizontalStack=0;resizeParent=1;resizeParentMax=0;resizeLast=0;collapsible=1;marginBottom=0;align=center;fontSize=14;" vertex="1" parent="1">
          <mxGeometry x="330" y="176" width="200" height="56" as="geometry" />
        </mxCell>
        <mxCell id="7X9gLZdVr9jNActSOQL8-22" value="Float Damage" style="text;strokeColor=none;fillColor=none;spacingLeft=4;spacingRight=4;overflow=hidden;rotatable=0;points=[[0,0.5],[1,0.5]];portConstraint=eastwest;fontSize=12;whiteSpace=wrap;html=1;" vertex="1" parent="7X9gLZdVr9jNActSOQL8-21">
          <mxGeometry y="26" width="200" height="30" as="geometry" />
        </mxCell>
        <mxCell id="7X9gLZdVr9jNActSOQL8-26" value="" style="edgeStyle=elbowEdgeStyle;elbow=horizontal;endArrow=classic;html=1;curved=0;rounded=0;endSize=8;startSize=8;exitX=-0.025;exitY=0.089;exitDx=0;exitDy=0;exitPerimeter=0;entryX=0.38;entryY=-0.018;entryDx=0;entryDy=0;entryPerimeter=0;" edge="1" parent="1" source="7X9gLZdVr9jNActSOQL8-10" target="7X9gLZdVr9jNActSOQL8-21">
          <mxGeometry width="50" height="50" relative="1" as="geometry">
            <mxPoint x="350" y="120" as="sourcePoint" />
            <mxPoint x="400" y="70" as="targetPoint" />
            <Array as="points">
              <mxPoint x="406" y="90" />
            </Array>
          </mxGeometry>
        </mxCell>
        <mxCell id="7X9gLZdVr9jNActSOQL8-27" value="AbilityComponent" style="swimlane;fontStyle=0;childLayout=stackLayout;horizontal=1;startSize=26;horizontalStack=0;resizeParent=1;resizeParentMax=0;resizeLast=0;collapsible=1;marginBottom=0;align=center;fontSize=14;" vertex="1" parent="1">
          <mxGeometry y="320" width="160" height="56" as="geometry" />
        </mxCell>
        <mxCell id="7X9gLZdVr9jNActSOQL8-28" value="virtual void UseAbility()" style="text;strokeColor=none;fillColor=none;spacingLeft=4;spacingRight=4;overflow=hidden;rotatable=0;points=[[0,0.5],[1,0.5]];portConstraint=eastwest;fontSize=12;whiteSpace=wrap;html=1;" vertex="1" parent="7X9gLZdVr9jNActSOQL8-27">
          <mxGeometry y="26" width="160" height="30" as="geometry" />
        </mxCell>
        <mxCell id="7X9gLZdVr9jNActSOQL8-31" value="BonusComponent" style="swimlane;fontStyle=0;childLayout=stackLayout;horizontal=1;startSize=26;horizontalStack=0;resizeParent=1;resizeParentMax=0;resizeLast=0;collapsible=1;marginBottom=0;align=center;fontSize=14;" vertex="1" parent="1">
          <mxGeometry y="400" width="160" height="56" as="geometry" />
        </mxCell>
        <mxCell id="7X9gLZdVr9jNActSOQL8-32" value="virtual void ActivateBonus()" style="text;strokeColor=none;fillColor=none;spacingLeft=4;spacingRight=4;overflow=hidden;rotatable=0;points=[[0,0.5],[1,0.5]];portConstraint=eastwest;fontSize=12;whiteSpace=wrap;html=1;" vertex="1" parent="7X9gLZdVr9jNActSOQL8-31">
          <mxGeometry y="26" width="160" height="30" as="geometry" />
        </mxCell>
        <mxCell id="7X9gLZdVr9jNActSOQL8-35" value="PlatformComponent" style="swimlane;fontStyle=0;childLayout=stackLayout;horizontal=1;startSize=26;horizontalStack=0;resizeParent=1;resizeParentMax=0;resizeLast=0;collapsible=1;marginBottom=0;align=center;fontSize=14;" vertex="1" parent="1">
          <mxGeometry x="240" y="320" width="160" height="56" as="geometry" />
        </mxCell>
        <mxCell id="7X9gLZdVr9jNActSOQL8-36" value="Bool HasCollision" style="text;strokeColor=none;fillColor=none;spacingLeft=4;spacingRight=4;overflow=hidden;rotatable=0;points=[[0,0.5],[1,0.5]];portConstraint=eastwest;fontSize=12;whiteSpace=wrap;html=1;" vertex="1" parent="7X9gLZdVr9jNActSOQL8-35">
          <mxGeometry y="26" width="160" height="30" as="geometry" />
        </mxCell>
      </root>
    </mxGraphModel>
  </diagram>
</mxfile>
